<svg width="278" height="47" viewBox="0 0 278 47" fill="none" xmlns="http://www.w3.org/2000/svg">
<g filter="url(#filter0_b_29_46)">
<path d="M128.654 23.4494C127.086 23.4494 125.8 22.9476 124.797 21.9439C123.793 20.9402 123.291 19.6856 123.291 18.18C123.291 16.7059 123.793 15.4669 124.797 14.4632C125.8 13.4282 127.086 12.9106 128.654 12.9106C130.16 12.9106 131.399 13.4282 132.371 14.4632C133.375 15.4669 133.877 16.7059 133.877 18.18C133.877 19.6856 133.375 20.9402 132.371 21.9439C131.399 22.9476 130.16 23.4494 128.654 23.4494ZM128.654 37.5638C127.086 37.5638 125.8 37.062 124.797 36.0583C123.793 35.0546 123.291 33.8 123.291 32.2944C123.291 30.8203 123.793 29.5813 124.797 28.5776C125.8 27.5426 127.086 27.0251 128.654 27.0251C130.16 27.0251 131.399 27.5426 132.371 28.5776C133.375 29.5813 133.877 30.8203 133.877 32.2944C133.877 33.8 133.375 35.0546 132.371 36.0583C131.399 37.062 130.16 37.5638 128.654 37.5638Z" fill="#0066FF"/>
</g>
<g filter="url(#filter1_b_29_46)">
<path d="M26.2446 13.7766L26.2446 34.4307C26.2446 38.4454 25.0997 41.4251 22.8101 43.3698C20.5204 45.3458 17.4623 46.3338 13.6357 46.3338C9.05635 46.3338 5.10431 44.9224 1.77958 42.0995L5.87277 36.4067C7.06465 37.3163 8.20949 37.9906 9.30727 38.4297C10.4364 38.8689 11.5969 39.0884 12.7888 39.0884C14.3257 39.0884 15.596 38.7434 16.5997 38.0534C17.6348 37.3633 18.1523 36.3283 18.1523 34.9482L18.1523 34.1013C16.6781 35.5441 14.6237 36.2655 11.989 36.2655C9.85617 36.2655 7.94288 35.795 6.24915 34.8541C4.55542 33.9131 3.22239 32.5644 2.25006 30.808C1.3091 29.0515 0.838623 27.0127 0.838623 24.6917C0.838623 22.3393 1.32479 20.3006 2.29711 18.5755C3.26944 16.8504 4.60247 15.533 6.2962 14.6234C7.98993 13.6825 9.88753 13.212 11.989 13.212C15.0942 13.212 17.3839 14.2 18.858 16.176L18.858 13.7766L26.2446 13.7766ZM13.7298 29.5847C14.9844 29.5847 16.0508 29.1456 16.9291 28.2674C17.8387 27.3578 18.2935 26.1188 18.2935 24.5506C18.2935 22.9823 17.8387 21.8218 16.9291 21.069C16.0508 20.2849 14.9844 19.8928 13.7298 19.8928C12.4438 19.8928 11.346 20.3006 10.4364 21.1161C9.5582 21.9316 9.11908 23.0921 9.11908 24.5976C9.11908 26.1345 9.57388 27.3578 10.4835 28.2674C11.3931 29.1456 12.4752 29.5847 13.7298 29.5847Z" fill="white"/>
<path d="M33.3937 2.01454L41.4859 2.01454L41.4859 37.3006L33.3937 37.3006L33.3937 2.01454Z" fill="white"/>
<path d="M58.9963 13.212C62.2896 13.212 64.893 14.1059 66.8063 15.8937C68.7195 17.6815 69.6762 20.2692 69.6762 23.6566L69.6762 37.3006L62.2896 37.3006L62.2896 35.3716C60.5332 37.034 58.2749 37.8652 55.5147 37.8652C53.821 37.8652 52.3625 37.5358 51.1393 36.8772C49.916 36.2185 48.9907 35.3402 48.3634 34.2425C47.7361 33.1133 47.4225 31.8901 47.4225 30.5727C47.4225 28.3771 48.2379 26.6677 49.8689 25.4445C51.5313 24.1899 53.7896 23.5625 56.6439 23.5625L61.5839 23.5625L61.5839 23.1862C61.5839 22.2766 61.2859 21.5552 60.69 21.022C60.1254 20.4574 59.2315 20.1751 58.0083 20.1751C56.9418 20.1751 55.9695 20.4103 55.0913 20.8808C54.2444 21.3199 53.2564 22.0413 52.1273 23.045L48.3634 17.9168C49.9317 16.3171 51.5627 15.1409 53.2564 14.3882C54.9501 13.604 56.8634 13.212 58.9963 13.212ZM58.0083 32.1253C59.0433 32.1253 59.8902 31.8273 60.5489 31.2314C61.2389 30.6041 61.5839 29.7572 61.5839 28.6908L61.5839 28.5026L57.773 28.5026C57.083 28.5026 56.5498 28.6594 56.1734 28.9731C55.797 29.2867 55.6088 29.7258 55.6088 30.2904C55.6088 30.855 55.8127 31.3098 56.2204 31.6548C56.6595 31.9685 57.2555 32.1253 58.0083 32.1253Z" fill="white"/>
<path d="M84.6228 37.8652C82.5213 37.8652 80.5766 37.4731 78.7888 36.689C77.0323 35.9048 75.6052 34.7914 74.5074 33.3485L78.2713 28.5496C80.2787 30.4943 82.4429 31.4666 84.7639 31.4666C86.144 31.4666 86.834 31.1216 86.834 30.4316C86.834 30.1806 86.7243 29.9768 86.5047 29.8199C86.3165 29.6631 85.9715 29.4749 85.4696 29.2554L82.8349 28.1733C80.5139 27.2323 78.7888 26.1972 77.6597 25.0681C76.5619 23.9389 76.013 22.4491 76.013 20.5985C76.013 18.2775 76.8442 16.474 78.5065 15.188C80.1689 13.8707 82.3801 13.212 85.1403 13.212C88.8414 13.212 91.7898 14.3568 93.9853 16.6465L90.1744 21.5865C88.5748 20.2378 86.9124 19.5635 85.1873 19.5635C84.0896 19.5635 83.5407 19.8614 83.5407 20.4574C83.5407 20.7083 83.6661 20.9279 83.917 21.1161C84.168 21.3042 84.5757 21.5081 85.1403 21.7277L87.4927 22.6686C89.8451 23.6096 91.5702 24.6133 92.668 25.6797C93.7971 26.7461 94.3617 28.2046 94.3617 30.0552C94.3617 32.4703 93.4521 34.3836 91.6329 35.795C89.8137 37.1751 87.477 37.8652 84.6228 37.8652Z" fill="white"/>
<path d="M107.961 37.8652C105.86 37.8652 103.915 37.4731 102.127 36.689C100.371 35.9048 98.9436 34.7914 97.8458 33.3485L101.61 28.5496C103.617 30.4943 105.781 31.4666 108.102 31.4666C109.482 31.4666 110.172 31.1216 110.172 30.4316C110.172 30.1806 110.063 29.9768 109.843 29.8199C109.655 29.6631 109.31 29.4749 108.808 29.2554L106.173 28.1733C103.852 27.2323 102.127 26.1972 100.998 25.0681C99.9003 23.9389 99.3514 22.4491 99.3514 20.5985C99.3514 18.2775 100.183 16.474 101.845 15.188C103.507 13.8707 105.719 13.212 108.479 13.212C112.18 13.212 115.128 14.3568 117.324 16.6465L113.513 21.5865C111.913 20.2378 110.251 19.5635 108.526 19.5635C107.428 19.5635 106.879 19.8614 106.879 20.4574C106.879 20.7083 107.005 20.9279 107.255 21.1161C107.506 21.3042 107.914 21.5081 108.479 21.7277L110.831 22.6686C113.184 23.6096 114.909 24.6133 116.006 25.6797C117.136 26.7461 117.7 28.2046 117.7 30.0552C117.7 32.4703 116.791 34.3836 114.971 35.795C113.152 37.1751 110.815 37.8652 107.961 37.8652Z" fill="white"/>
<path d="M153.99 13.7766L153.99 20.9279L152.061 20.9279C150.21 20.9279 148.814 21.3827 147.873 22.2923C146.932 23.1705 146.462 24.5976 146.462 26.5736L146.462 37.3006L138.37 37.3006L138.37 13.7766L145.756 13.7766L145.756 16.2701C146.478 15.3605 147.34 14.6548 148.344 14.1529C149.379 13.6511 150.492 13.4002 151.684 13.4002C152.531 13.4002 153.3 13.5256 153.99 13.7766Z" fill="white"/>
<path d="M180.972 28.3615L165.917 28.3615C166.795 30.1493 168.551 31.0432 171.186 31.0432C173.288 31.0432 175.342 30.4316 177.349 29.2083L180.266 34.7129C177.475 36.8144 174.354 37.8652 170.904 37.8652C168.363 37.8652 166.089 37.3319 164.082 36.2655C162.074 35.1677 160.506 33.6936 159.377 31.843C158.248 29.9611 157.683 27.8596 157.683 25.5386C157.683 23.2489 158.232 21.1631 159.33 19.2812C160.459 17.3993 161.98 15.9251 163.894 14.8587C165.807 13.7609 167.924 13.212 170.245 13.212C172.503 13.212 174.479 13.7138 176.173 14.7175C177.867 15.7212 179.169 17.0856 180.078 18.8107C181.019 20.5044 181.49 22.355 181.49 24.3624C181.49 25.7738 181.317 27.1068 180.972 28.3615ZM169.916 19.5635C168.912 19.5635 168.018 19.8771 167.234 20.5044C166.481 21.1004 165.948 21.9629 165.634 23.0921L173.821 23.0921C173.789 22.0256 173.397 21.1788 172.645 20.5515C171.892 19.8928 170.982 19.5635 169.916 19.5635Z" fill="white"/>
<path d="M201.596 13.212C203.76 13.212 205.705 13.7452 207.43 14.8116C209.155 15.8467 210.488 17.2895 211.429 19.14C212.401 20.9906 212.888 23.1078 212.888 25.4915C212.888 27.8753 212.401 30.0081 211.429 31.8901C210.457 33.7406 209.108 35.1991 207.383 36.2655C205.689 37.3319 203.76 37.8652 201.596 37.8652C199.118 37.8652 197.111 37.1438 195.574 35.701L195.574 45.7692L187.482 45.7692L187.482 13.7766L194.868 13.7766L194.868 16.2231C196.342 14.2157 198.585 13.212 201.596 13.212ZM199.996 30.5257C201.251 30.5257 202.333 30.0866 203.243 29.2083C204.152 28.3301 204.607 27.1068 204.607 25.5386C204.607 23.9703 204.152 22.7471 203.243 21.8688C202.364 20.9906 201.282 20.5515 199.996 20.5515C198.742 20.5515 197.66 20.9749 196.75 21.8218C195.872 22.6686 195.433 23.8919 195.433 25.4915C195.433 27.0912 195.872 28.3301 196.75 29.2083C197.66 30.0866 198.742 30.5257 199.996 30.5257Z" fill="white"/>
<path d="M229.211 13.212C232.504 13.212 235.108 14.1059 237.021 15.8937C238.934 17.6815 239.891 20.2692 239.891 23.6566L239.891 37.3006L232.504 37.3006L232.504 35.3716C230.748 37.034 228.49 37.8652 225.729 37.8652C224.036 37.8652 222.577 37.5358 221.354 36.8772C220.131 36.2185 219.205 35.3402 218.578 34.2425C217.951 33.1133 217.637 31.8901 217.637 30.5727C217.637 28.3771 218.453 26.6677 220.084 25.4445C221.746 24.1899 224.004 23.5626 226.859 23.5626L231.799 23.5626L231.799 23.1862C231.799 22.2766 231.501 21.5552 230.905 21.022C230.34 20.4574 229.446 20.1751 228.223 20.1751C227.157 20.1751 226.184 20.4103 225.306 20.8808C224.459 21.3199 223.471 22.0413 222.342 23.045L218.578 17.9168C220.146 16.3171 221.777 15.1409 223.471 14.3882C225.165 13.604 227.078 13.212 229.211 13.212ZM228.223 32.1253C229.258 32.1253 230.105 31.8273 230.764 31.2314C231.454 30.6041 231.799 29.7572 231.799 28.6908L231.799 28.5026L227.988 28.5026C227.298 28.5026 226.765 28.6594 226.388 28.9731C226.012 29.2867 225.824 29.7258 225.824 30.2904C225.824 30.855 226.027 31.3098 226.435 31.6548C226.874 31.9685 227.47 32.1253 228.223 32.1253Z" fill="white"/>
<path d="M246.839 13.7766L254.932 13.7766L254.932 37.3006L246.839 37.3006L246.839 13.7766ZM250.838 10.2009C249.458 10.2009 248.282 9.74611 247.31 8.83651C246.369 7.92692 245.898 6.79776 245.898 5.44905C245.898 4.10034 246.369 2.97119 247.31 2.06159C248.282 1.12063 249.458 0.650148 250.838 0.650148C252.218 0.650148 253.395 1.12063 254.367 2.06159C255.339 2.97119 255.826 4.10034 255.826 5.44905C255.826 6.76639 255.339 7.89555 254.367 8.83651C253.395 9.74611 252.218 10.2009 250.838 10.2009Z" fill="white"/>
<path d="M277.711 13.7766L277.711 20.9279L275.782 20.9279C273.932 20.9279 272.536 21.3827 271.595 22.2923C270.654 23.1705 270.184 24.5976 270.184 26.5736L270.184 37.3006L262.091 37.3006L262.091 13.7766L269.478 13.7766L269.478 16.2701C270.199 15.3605 271.062 14.6548 272.066 14.1529C273.101 13.6511 274.214 13.4002 275.406 13.4002C276.253 13.4002 277.021 13.5256 277.711 13.7766Z" fill="white"/>
</g>
<defs>
<filter id="filter0_b_29_46" x="72.291" y="-38.0894" width="112.586" height="126.653" filterUnits="userSpaceOnUse" color-interpolation-filters="sRGB">
<feFlood flood-opacity="0" result="BackgroundImageFix"/>
<feGaussianBlur in="BackgroundImageFix" stdDeviation="25.5"/>
<feComposite in2="SourceAlpha" operator="in" result="effect1_backgroundBlur_29_46"/>
<feBlend mode="normal" in="SourceGraphic" in2="effect1_backgroundBlur_29_46" result="shape"/>
</filter>
<filter id="filter1_b_29_46" x="-50.1614" y="-50.3499" width="378.873" height="147.684" filterUnits="userSpaceOnUse" color-interpolation-filters="sRGB">
<feFlood flood-opacity="0" result="BackgroundImageFix"/>
<feGaussianBlur in="BackgroundImageFix" stdDeviation="25.5"/>
<feComposite in2="SourceAlpha" operator="in" result="effect1_backgroundBlur_29_46"/>
<feBlend mode="normal" in="SourceGraphic" in2="effect1_backgroundBlur_29_46" result="shape"/>
</filter>
</defs>
</svg>
