<svg width="22" height="40" viewBox="0 0 22 40" fill="none" xmlns="http://www.w3.org/2000/svg">
<path fill-rule="evenodd" clip-rule="evenodd" d="M3.09347 2.44536C2.658 2.44536 2.30497 2.79838 2.30497 3.23385V36.502C2.30497 36.9375 2.65799 37.2905 3.09347 37.2905H19.2377C19.6732 37.2905 20.0262 36.9375 20.0262 36.502V3.23385C20.0262 2.79838 19.6732 2.44536 19.2377 2.44536H3.09347ZM0.512939 3.23385C0.512939 1.80866 1.66828 0.65332 3.09347 0.65332H19.2377C20.6629 0.65332 21.8182 1.80866 21.8182 3.23385V36.502C21.8182 37.9272 20.6629 39.0825 19.2377 39.0825H3.09347C1.66828 39.0825 0.512939 37.9272 0.512939 36.502V3.23385Z" fill="white"/>
<path d="M11.2651 35.4988C11.9249 35.4988 12.4598 34.9639 12.4598 34.3041C12.4598 33.6443 11.9249 33.1094 11.2651 33.1094C10.6053 33.1094 10.0704 33.6443 10.0704 34.3041C10.0704 34.9639 10.6053 35.4988 11.2651 35.4988Z" fill="white"/>
<path fill-rule="evenodd" clip-rule="evenodd" d="M0.811523 7.12453C0.811523 6.62968 1.21268 6.22852 1.70754 6.22852H20.8226C21.3174 6.22852 21.7186 6.62968 21.7186 7.12453C21.7186 7.61939 21.3174 8.02055 20.8226 8.02055H1.70754C1.21268 8.02055 0.811523 7.61939 0.811523 7.12453Z" fill="white"/>
<path fill-rule="evenodd" clip-rule="evenodd" d="M0.811523 30.6201C0.811523 30.1253 1.21268 29.7241 1.70754 29.7241H20.8226C21.3174 29.7241 21.7186 30.1253 21.7186 30.6201C21.7186 31.115 21.3174 31.5162 20.8226 31.5162H1.70754C1.21268 31.5162 0.811523 31.115 0.811523 30.6201Z" fill="white"/>
</svg>
